{
  "accessors": [
    {
      "bufferView": 1,
      "componentType": 5126,
      "count": 65532,
      "max": [
        53.115997314453125,
        40.350379943847656,
        24.130050659179688
      ],
      "min": [
        2.5279979705810547,
        0.031709998846054077,
        0
      ],
      "type": "VEC3"
    },
    {
      "bufferView": 1,
      "byteOffset": 786384,
      "componentType": 5126,
      "count": 65532,
      "max": [
        0.99678313732147217,
        1,
        1
      ],
      "min": [
        -0.99872809648513794,
        -1,
        -0.999500572681427
      ],
      "type": "VEC3"
    },
    {
      "bufferView": 2,
      "componentType": 5126,
      "count": 65532,
      "max": [
        1,
        1,
        1,
        1
      ],
      "min": [
        1,
        1,
        1,
        1
      ],
      "type": "VEC4"
    },
    {
      "bufferView": 0,
      "componentType": 5125,
      "count": 65532,
      "max": [
        65531
      ],
      "min": [
        0
      ],
      "type": "SCALAR"
    },
    {
      "bufferView": 1,
      "byteOffset": 1572768,
      "componentType": 5126,
      "count": 65532,
      "max": [
        51.494869232177734,
        43.279277801513672,
        22.318050384521484
      ],
      "min": [
        5.3205580711364746,
        0.03371100127696991,
        4.7677140235900879
      ],
      "type": "VEC3"
    },
    {
      "bufferView": 1,
      "byteOffset": 2359152,
      "componentType": 5126,
      "count": 65532,
      "max": [
        0.99833756685256958,
        0.9999849796295166,
        0.99989831447601318
      ],
      "min": [
        -0.99846082925796509,
        -0.99985635280609131,
        -0.99428945779800415
      ],
      "type": "VEC3"
    },
    {
      "bufferView": 2,
      "byteOffset": 1048512,
      "componentType": 5126,
      "count": 65532,
      "max": [
        1,
        1,
        1,
        1
      ],
      "min": [
        1,
        1,
        1,
        1
      ],
      "type": "VEC4"
    },
    {
      "bufferView": 0,
      "byteOffset": 262128,
      "componentType": 5125,
      "count": 65532,
      "max": [
        65531
      ],
      "min": [
        0
      ],
      "type": "SCALAR"
    },
    {
      "bufferView": 1,
      "byteOffset": 3145536,
      "componentType": 5126,
      "count": 65534,
      "max": [
        52.685314178466797,
        44.031116485595703,
        20.824050903320312
      ],
      "min": [
        5.8613929748535156,
        0.075282998383045197,
        6.759253978729248
      ],
      "type": "VEC3"
    },
    {
      "bufferView": 1,
      "byteOffset": 3931944,
      "componentType": 5126,
      "count": 65534,
      "max": [
        0.99548631906509399,
        0.99973899126052856,
        1
      ],
      "min": [
        -0.99990057945251465,
        -0.99996006488800049,
        -0.99524128437042236
      ],
      "type": "VEC3"
    },
    {
      "bufferView": 2,
      "byteOffset": 2097024,
      "componentType": 5126,
      "count": 65534,
      "max": [
        1,
        1,
        1,
        1
      ],
      "min": [
        1,
        1,
        1,
        1
      ],
      "type": "VEC4"
    },
    {
      "bufferView": 0,
      "byteOffset": 524256,
      "componentType": 5125,
      "count": 65538,
      "max": [
        65533
      ],
      "min": [
        0
      ],
      "type": "SCALAR"
    },
    {
      "bufferView": 1,
      "byteOffset": 4718352,
      "componentType": 5126,
      "count": 65532,
      "max": [
        60.035236358642578,
        43.956935882568359,
        15.79355525970459
      ],
      "min": [
        5.8348388671875,
        0.0033360000234097242,
        8.5560522079467773
      ],
      "type": "VEC3"
    },
    {
      "bufferView": 1,
      "byteOffset": 5504736,
      "componentType": 5126,
      "count": 65532,
      "max": [
        0.99997705221176147,
        0.99998599290847778,
        0.99980276823043823
      ],
      "min": [
        -0.99991148710250854,
        -0.99980729818344116,
        -0.9991908073425293
      ],
      "type": "VEC3"
    },
    {
      "bufferView": 2,
      "byteOffset": 3145568,
      "componentType": 5126,
      "count": 65532,
      "max": [
        1,
        1,
        1,
        1
      ],
      "min": [
        1,
        1,
        1,
        1
      ],
      "type": "VEC4"
    },
    {
      "bufferView": 0,
      "byteOffset": 786408,
      "componentType": 5125,
      "count": 65532,
      "max": [
        65531
      ],
      "min": [
        0
      ],
      "type": "SCALAR"
    },
    {
      "bufferView": 1,
      "byteOffset": 6291120,
      "componentType": 5126,
      "count": 65532,
      "max": [
        62.425941467285156,
        40.603736877441406,
        16.984050750732422
      ],
      "min": [
        3.6211569309234619,
        0,
        10.262050628662109
      ],
      "type": "VEC3"
    },
    {
      "bufferView": 1,
      "byteOffset": 7077504,
      "componentType": 5126,
      "count": 65532,
      "max": [
        0.99972635507583618,
        0.99999481439590454,
        0.99993818998336792
      ],
      "min": [
        -1,
        -0.9998161792755127,
        -0.99998140335083008
      ],
      "type": "VEC3"
    },
    {
      "bufferView": 2,
      "byteOffset": 4194080,
      "componentType": 5126,
      "count": 65532,
      "max": [
        1,
        1,
        1,
        1
      ],
      "min": [
        1,
        1,
        1,
        1
      ],
      "type": "VEC4"
    },
    {
      "bufferView": 0,
      "byteOffset": 1048536,
      "componentType": 5125,
      "count": 65532,
      "max": [
        65531
      ],
      "min": [
        0
      ],
      "type": "SCALAR"
    },
    {
      "bufferView": 1,
      "byteOffset": 7863888,
      "componentType": 5126,
      "count": 65533,
      "max": [
        62.441135406494141,
        40.606735229492188,
        19.119312286376953
      ],
      "min": [
        2.1861670017242432,
        0.013709999620914459,
        11.95405101776123
      ],
      "type": "VEC3"
    },
    {
      "bufferView": 1,
      "byteOffset": 8650284,
      "componentType": 5126,
      "count": 65533,
      "max": [
        0.99949878454208374,
        0.99999856948852539,
        0.99996376037597656
      ],
      "min": [
        -0.99938040971755981,
        -0.99998617172241211,
        -0.99992895126342773
      ],
      "type": "VEC3"
    },
    {
      "bufferView": 2,
      "byteOffset": 5242592,
      "componentType": 5126,
      "count": 65533,
      "max": [
        1,
        1,
        1,
        1
      ],
      "min": [
        1,
        1,
        1,
        1
      ],
      "type": "VEC4"
    },
    {
      "bufferView": 0,
      "byteOffset": 1310664,
      "componentType": 5125,
      "count": 65535,
      "max": [
        65532
      ],
      "min": [
        0
      ],
      "type": "SCALAR"
    },
    {
      "bufferView": 1,
      "byteOffset": 9436680,
      "componentType": 5126,
      "count": 65532,
      "max": [
        61.683177947998047,
        40.606735229492188,
        17.094051361083984
      ],
      "min": [
        1.1501649618148804,
        0.019709000363945961,
        13.432051658630371
      ],
      "type": "VEC3"
    },
    {
      "bufferView": 1,
      "byteOffset": 10223064,
      "componentType": 5126,
      "count": 65532,
      "max": [
        0.99974393844604492,
        0.99999403953552246,
        0.99952065944671631
      ],
      "min": [
        -0.99907106161117554,
        -0.9999995231628418,
        -0.99999892711639404
      ],
      "type": "VEC3"
    },
    {
      "bufferView": 2,
      "byteOffset": 6291120,
      "componentType": 5126,
      "count": 65532,
      "max": [
        1,
        1,
        1,
        1
      ],
      "min": [
        1,
        1,
        1,
        1
      ],
      "type": "VEC4"
    },
    {
      "bufferView": 0,
      "byteOffset": 1572804,
      "componentType": 5125,
      "count": 65532,
      "max": [
        65531
      ],
      "min": [
        0
      ],
      "type": "SCALAR"
    },
    {
      "bufferView": 1,
      "byteOffset": 11009448,
      "componentType": 5126,
      "count": 65532,
      "max": [
        58.662998199462891,
        39.907482147216797,
        22.638050079345703
      ],
      "min": [
        0.98497897386550903,
        0.027186000719666481,
        14.686054229736328
      ],
      "type": "VEC3"
    },
    {
      "bufferView": 1,
      "byteOffset": 11795832,
      "componentType": 5126,
      "count": 65532,
      "max": [
        0.99997204542160034,
        0.99999642372131348,
        0.99995827674865723
      ],
      "min": [
        -0.9997667670249939,
        -0.99992191791534424,
        -0.99992918968200684
      ],
      "type": "VEC3"
    },
    {
      "bufferView": 2,
      "byteOffset": 7339632,
      "componentType": 5126,
      "count": 65532,
      "max": [
        1,
        1,
        1,
        1
      ],
      "min": [
        1,
        1,
        1,
        1
      ],
      "type": "VEC4"
    },
    {
      "bufferView": 0,
      "byteOffset": 1834932,
      "componentType": 5125,
      "count": 65538,
      "max": [
        65531
      ],
      "min": [
        0
      ],
      "type": "SCALAR"
    },
    {
      "bufferView": 1,
      "byteOffset": 12582216,
      "componentType": 5126,
      "count": 65534,
      "max": [
        58.663089752197266,
        38.970813751220703,
        19.970050811767578
      ],
      "min": [
        0,
        0.03570999950170517,
        16.440052032470703
      ],
      "type": "VEC3"
    },
    {
      "bufferView": 1,
      "byteOffset": 13368624,
      "componentType": 5126,
      "count": 65534,
      "max": [
        0.99992924928665161,
        0.99996578693389893,
        0.99987584352493286
      ],
      "min": [
        -0.99985402822494507,
        -0.99986374378204346,
        -0.99988573789596558
      ],
      "type": "VEC3"
    },
    {
      "bufferView": 2,
      "byteOffset": 8388144,
      "componentType": 5126,
      "count": 65534,
      "max": [
        1,
        1,
        1,
        1
      ],
      "min": [
        1,
        1,
        1,
        1
      ],
      "type": "VEC4"
    },
    {
      "bufferView": 0,
      "byteOffset": 2097084,
      "componentType": 5125,
      "count": 65538,
      "max": [
        65533
      ],
      "min": [
        0
      ],
      "type": "SCALAR"
    },
    {
      "bufferView": 1,
      "byteOffset": 14155032,
      "componentType": 5126,
      "count": 65532,
      "max": [
        58.414138793945312,
        38.530982971191406,
        22.638050079345703
      ],
      "min": [
        0,
        0.07371000200510025,
        18.7049560546875
      ],
      "type": "VEC3"
    },
    {
      "bufferView": 1,
      "byteOffset": 14941416,
      "componentType": 5126,
      "count": 65532,
      "max": [
        0.99953740835189819,
        0.99998420476913452,
        0.99952828884124756
      ],
      "min": [
        -0.99994772672653198,
        -0.99996048212051392,
        -1
      ],
      "type": "VEC3"
    },
    {
      "bufferView": 2,
      "byteOffset": 9436688,
      "componentType": 5126,
      "count": 65532,
      "max": [
        1,
        1,
        1,
        1
      ],
      "min": [
        1,
        1,
        1,
        1
      ],
      "type": "VEC4"
    },
    {
      "bufferView": 0,
      "byteOffset": 2359236,
      "componentType": 5125,
      "count": 65532,
      "max": [
        65531
      ],
      "min": [
        0
      ],
      "type": "SCALAR"
    },
    {
      "bufferView": 1,
      "byteOffset": 15727800,
      "componentType": 5126,
      "count": 41571,
      "max": [
        56.782386779785156,
        28.917617797851562,
        27.923421859741211
      ],
      "min": [
        3.6035780906677246,
        0.14170999825000763,
        21.42976188659668
      ],
      "type": "VEC3"
    },
    {
      "bufferView": 1,
      "byteOffset": 16226652,
      "componentType": 5126,
      "count": 41571,
      "max": [
        0.99997752904891968,
        0.99992978572845459,
        0.99919068813323975
      ],
      "min": [
        -0.99980759620666504,
        -0.99980056285858154,
        -0.99994373321533203
      ],
      "type": "VEC3"
    },
    {
      "bufferView": 2,
      "byteOffset": 10485200,
      "componentType": 5126,
      "count": 41571,
      "max": [
        1,
        1,
        1,
        1
      ],
      "min": [
        1,
        1,
        1,
        1
      ],
      "type": "VEC4"
    },
    {
      "bufferView": 0,
      "byteOffset": 2621364,
      "componentType": 5125,
      "count": 41571,
      "max": [
        41570
      ],
      "min": [
        0
      ],
      "type": "SCALAR"
    }
  ],
  "asset": {
    "extras": {
      "author": "uptown (https://sketchfab.com/uptown)",
      "license": "CC-BY-4.0 (http://creativecommons.org/licenses/by/4.0/)",
      "source": "https://sketchfab.com/models/f4b218fb3b0d49e9b3a27367850517b8",
      "title": "Dragon"
    },
    "generator": "Sketchfab-3.18.2",
    "version": "2.0"
  },
  "bufferViews": [
    {
      "buffer": 0,
      "byteLength": 2787648,
      "byteOffset": 0,
      "name": "floatBufferViews",
      "target": 34963
    },
    {
      "buffer": 0,
      "byteLength": 16725504,
      "byteOffset": 2787648,
      "byteStride": 12,
      "name": "floatBufferViews",
      "target": 34962
    },
    {
      "buffer": 0,
      "byteLength": 11150336,
      "byteOffset": 19513152,
      "byteStride": 16,
      "name": "floatBufferViews",
      "target": 34962
    }
  ],
  "buffers": [
    {
      "byteLength": 30663488,
      "uri": "scene.bin"
    }
  ],
  "materials": [
    {
      "doubleSided": true,
      "emissiveFactor": [
        0,
        0,
        0
      ],
      "name": "Scene_-_Root",
      "pbrMetallicRoughness": {
        "baseColorFactor": [
          0.5,
          0.5,
          0.5,
          1
        ],
        "metallicFactor": 0,
        "roughnessFactor": 0.59999999999999998
      }
    }
  ],
  "meshes": [
    {
      "primitives": [
        {
          "attributes": {
            "COLOR_0": 2,
            "NORMAL": 1,
            "POSITION": 0
          },
          "indices": 3,
          "material": 0,
          "mode": 4
        }
      ]
    },
    {
      "primitives": [
        {
          "attributes": {
            "COLOR_0": 6,
            "NORMAL": 5,
            "POSITION": 4
          },
          "indices": 7,
          "material": 0,
          "mode": 4
        }
      ]
    },
    {
      "primitives": [
        {
          "attributes": {
            "COLOR_0": 10,
            "NORMAL": 9,
            "POSITION": 8
          },
          "indices": 11,
          "material": 0,
          "mode": 4
        }
      ]
    },
    {
      "primitives": [
        {
          "attributes": {
            "COLOR_0": 14,
            "NORMAL": 13,
            "POSITION": 12
          },
          "indices": 15,
          "material": 0,
          "mode": 4
        }
      ]
    },
    {
      "primitives": [
        {
          "attributes": {
            "COLOR_0": 18,
            "NORMAL": 17,
            "POSITION": 16
          },
          "indices": 19,
          "material": 0,
          "mode": 4
        }
      ]
    },
    {
      "primitives": [
        {
          "attributes": {
            "COLOR_0": 22,
            "NORMAL": 21,
            "POSITION": 20
          },
          "indices": 23,
          "material": 0,
          "mode": 4
        }
      ]
    },
    {
      "primitives": [
        {
          "attributes": {
            "COLOR_0": 26,
            "NORMAL": 25,
            "POSITION": 24
          },
          "indices": 27,
          "material": 0,
          "mode": 4
        }
      ]
    },
    {
      "primitives": [
        {
          "attributes": {
            "COLOR_0": 30,
            "NORMAL": 29,
            "POSITION": 28
          },
          "indices": 31,
          "material": 0,
          "mode": 4
        }
      ]
    },
    {
      "primitives": [
        {
          "attributes": {
            "COLOR_0": 34,
            "NORMAL": 33,
            "POSITION": 32
          },
          "indices": 35,
          "material": 0,
          "mode": 4
        }
      ]
    },
    {
      "primitives": [
        {
          "attributes": {
            "COLOR_0": 38,
            "NORMAL": 37,
            "POSITION": 36
          },
          "indices": 39,
          "material": 0,
          "mode": 4
        }
      ]
    },
    {
      "primitives": [
        {
          "attributes": {
            "COLOR_0": 42,
            "NORMAL": 41,
            "POSITION": 40
          },
          "indices": 43,
          "material": 0,
          "mode": 4
        }
      ]
    }
  ],
  "nodes": [
    {
      "children": [
        1
      ],
      "name": "RootNode (gltf orientation matrix)",
      "rotation": [
        -0.70710678118654746,
        -0,
        -0,
        0.70710678118654757
      ]
    },
    {
      "children": [
        2
      ],
      "matrix": [
        1,
        0,
        0,
        0,
        0,
        0,
        1,
        0,
        0,
        -1,
        0,
        0,
        0,
        11.171805381774902,
        14.953897476196289,
        1
      ],
      "name": "RootNode (model correction matrix)"
    },
    {
      "children": [
        3
      ],
      "matrix": [
        1,
        0,
        0,
        0,
        0,
        1,
        0,
        0,
        0,
        0,
        1,
        0,
        -31.215309143066406,
        -22.012807846069336,
        0.0019680000841617584,
        1
      ],
      "name": "1d969623d787416bb4b5123cdde5ce0b.dxf.cleaner"
    },
    {
      "children": [
        4
      ],
      "matrix": [
        1,
        0,
        0,
        0,
        0,
        1,
        0,
        0,
        0,
        0,
        1,
        0,
        1.4306640494510248e-07,
        -1.5393066377100695e-07,
        -8.4161758291678712e-11,
        1
      ],
      "name": "Layers"
    },
    {
      "children": [
        5,
        6,
        7,
        8,
        9,
        10,
        11,
        12,
        13,
        14,
        15
      ],
      "name": "0"
    },
    {
      "mesh": 0,
      "name": ""
    },
    {
      "mesh": 1,
      "name": ""
    },
    {
      "mesh": 2,
      "name": ""
    },
    {
      "mesh": 3,
      "name": ""
    },
    {
      "mesh": 4,
      "name": ""
    },
    {
      "mesh": 5,
      "name": ""
    },
    {
      "mesh": 6,
      "name": ""
    },
    {
      "mesh": 7,
      "name": ""
    },
    {
      "mesh": 8,
      "name": ""
    },
    {
      "mesh": 9,
      "name": ""
    },
    {
      "mesh": 10,
      "name": ""
    }
  ],
  "scene": 0,
  "scenes": [
    {
      "name": "OSG_Scene",
      "nodes": [
        0
      ]
    }
  ]
}

